<svg width="400" height="400" viewBox="0 0 400 400" version="1.1" xmlns="http://www.w3.org/2000/svg" xmlns:xlink="http://www.w3.org/1999/xlink">
<title>Group</title>
<desc>Created using Figma</desc>
<g id="Canvas" transform="matrix(2 0 0 2 -1594 -8700)">
<g id="Group">
<g id="Ellipse 6">
<g filter="url(#filter0_i)">
<use xlink:href="#path0_fill" transform="translate(797 4350)" fill="#FFFFFF"/>
</g>
<mask id="mask0_outline_ins">
<use xlink:href="#path0_fill" fill="white" transform="translate(797 4350)"/>
</mask>
<g mask="url(#mask0_outline_ins)">
<use xlink:href="#path1_stroke_2x" transform="translate(797 4350)" fill="#5E5E5E"/>
</g>
</g>
<g id="pV">
<use xlink:href="#path2_fill" transform="translate(830 4415)" fill="#5E5E5E"/>
</g>
</g>
</g>
<defs>
<filter id="filter0_i" filterUnits="userSpaceOnUse" x="797" y="4350" width="200" height="204" color-interpolation-filters="sRGB">
<feFlood flood-opacity="0" result="BackgroundImageFix"/>
<feBlend mode="normal" in="SourceGraphic" in2="BackgroundImageFix" result="shape"/>
<feColorMatrix in="SourceAlpha" type="matrix" values="0 0 0 0 0 0 0 0 0 0 0 0 0 0 0 0 0 0 255 0" result="hardAlpha"/>
<feOffset dx="0" dy="4"/>
<feGaussianBlur stdDeviation="12"/>
<feComposite in2="hardAlpha" operator="arithmetic" k2="-1" k3="1"/>
<feColorMatrix type="matrix" values="0 0 0 0 0 0 0 0 0 0 0 0 0 0 0 0 0 0 0.25 0"/>
<feBlend mode="normal" in2="shape" result="effect1_innerShadow"/>
</filter>
<path id="path0_fill" d="M 200 100C 200 155.228 155.228 200 100 200C 44.7715 200 0 155.228 0 100C 0 44.7715 44.7715 0 100 0C 155.228 0 200 44.7715 200 100Z"/>
<path id="path1_stroke_2x" d="M 193 100C 193 151.362 151.362 193 100 193L 100 207C 159.094 207 207 159.094 207 100L 193 100ZM 100 193C 48.6375 193 7 151.362 7 100L -7 100C -7 159.094 40.9055 207 100 207L 100 193ZM 7 100C 7 48.6375 48.6375 7 100 7L 100 -7C 40.9055 -7 -7 40.9055 -7 100L 7 100ZM 100 7C 151.362 7 193 48.6375 193 100L 207 100C 207 40.9055 159.094 -7 100 -7L 100 7Z"/>
<path id="path2_fill" d="M 8.75977 115.489C 7.26237 114.516 6.02702 112.981 5.05371 110.885C 4.0804 108.863 3.29427 106.692 2.69531 104.371C 2.09635 102.05 1.64714 99.7666 1.34766 97.5205C 1.12305 95.2744 0.973307 93.4775 0.898438 92.1299C 0.598958 85.6911 0.486654 78.8779 0.561523 71.6904C 0.711263 64.5778 1.38509 57.5026 2.58301 50.4648C 3.78092 43.3522 5.61523 36.5391 8.08594 30.0254C 10.6315 23.4369 14.113 17.4847 18.5303 12.1689C 20.8512 9.39876 23.0973 6.89062 25.2686 4.64453C 27.5146 2.32357 29.8356 0.264648 32.2314 -1.53223C 34.7021 -3.3291 37.3226 -4.86393 40.0928 -6.13672C 42.9378 -7.48438 46.1198 -8.53255 49.6387 -9.28125C 52.8581 -9.95508 55.2913 -9.61816 56.9385 -8.27051C 58.6605 -6.92285 59.7835 -4.90137 60.3076 -2.20605C 60.8317 0.414386 60.8317 3.55892 60.3076 7.22754C 59.7835 10.8213 58.8851 14.5648 57.6123 18.458C 56.3395 22.2764 54.7673 26.0199 52.8955 29.6885C 51.0986 33.3571 49.152 36.5765 47.0557 39.3467C 44.9593 42.1169 42.7881 44.2881 40.542 45.8604C 38.2959 47.3577 36.1247 47.8444 34.0283 47.3203C 33.7288 46.7962 34.0658 45.5609 35.0391 43.6143C 36.0124 41.6676 37.2852 39.2718 38.8574 36.4268C 40.5046 33.5817 42.264 30.4372 44.1357 26.9932C 46.0824 23.4743 47.8044 19.918 49.3018 16.3242C 50.874 12.7305 52.0719 9.21159 52.8955 5.76758C 53.7939 2.32357 54.0186 -0.746094 53.5693 -3.44141C 53.3447 -4.63933 52.6709 -5.35059 51.5479 -5.5752C 50.4248 -5.7998 49.1895 -5.76237 47.8418 -5.46289C 46.569 -5.16341 45.3337 -4.78906 44.1357 -4.33984C 42.9378 -3.89062 42.1891 -3.59114 41.8896 -3.44141C 36.1995 -0.970703 31.2581 2.62305 27.0654 7.33984C 22.9476 11.9818 19.4661 17.335 16.6211 23.3994C 13.776 29.389 11.5299 35.7904 9.88281 42.6035C 8.31055 49.4167 7.1875 56.1175 6.51367 62.7061C 5.83984 69.3695 5.5778 75.696 5.72754 81.6855C 5.87728 87.75 6.36393 92.9535 7.1875 97.2959C 8.01107 101.713 9.05924 105.045 10.332 107.291C 11.6048 109.612 13.0273 110.398 14.5996 109.649C 14.7493 109.575 15.0488 109.275 15.498 108.751C 16.0221 108.227 16.3591 107.853 16.5088 107.628C 17.557 104.483 18.418 101.039 19.0918 97.2959C 19.7656 93.5524 20.2523 89.6592 20.5518 85.6162C 20.9261 81.5732 21.1507 77.4928 21.2256 73.375C 21.3005 69.2572 21.3005 65.2516 21.2256 61.3584C 21.1507 57.54 21.001 53.9089 20.7764 50.4648C 20.6266 47.0208 20.4769 43.9886 20.3271 41.3682C 20.1025 40.8441 19.9154 39.8708 19.7656 38.4482C 19.6908 37.0257 19.6159 35.4909 19.541 33.8438C 19.541 32.1966 19.5784 30.5869 19.6533 29.0146C 19.8031 27.3675 20.0651 26.1322 20.4395 25.3086C 20.8138 24.485 21.3005 24.1855 21.8994 24.4102C 22.4984 24.6348 23.2845 25.7204 24.2578 27.667C 24.4076 28.6403 24.5573 30.3249 24.707 32.7207C 24.9316 35.1165 25.1562 37.6995 25.3809 40.4697C 25.6055 43.165 25.7926 45.7106 25.9424 48.1064C 26.0921 50.5023 26.167 52.1868 26.167 53.1602C 26.2419 54.2083 26.2793 55.6683 26.2793 57.54C 26.3542 59.3369 26.3916 61.2835 26.3916 63.3799L 26.3916 76.2949C 26.3916 78.2415 26.3542 79.9261 26.2793 81.3486C 26.2793 82.846 26.2419 83.8193 26.167 84.2686C 26.167 84.9424 25.9798 86.2526 25.6055 88.1992C 25.306 90.2207 24.9691 92.3545 24.5947 94.6006C 24.2204 96.9215 23.8086 99.1302 23.3594 101.227C 22.9102 103.323 22.5732 104.82 22.3486 105.719C 21.8994 107.291 21.263 108.901 20.4395 110.548C 19.6159 112.195 18.6051 113.58 17.4072 114.703C 16.2842 115.826 14.974 116.5 13.4766 116.725C 12.054 117.024 10.4818 116.612 8.75977 115.489ZM 70.0781 -1.41992C 69.8535 -1.7194 69.3669 -2.31836 68.6182 -3.2168C 67.8695 -4.11523 67.2331 -5.0511 66.709 -6.02441C 66.2598 -7.07259 66.0352 -8.08333 66.0352 -9.05664C 66.11 -10.03 66.8213 -10.7412 68.1689 -11.1904C 68.693 -11.415 69.4417 -11.5273 70.415 -11.5273C 71.4632 -11.5273 72.0247 -11.415 72.0996 -11.1904L 91.5283 35.6406C 92.1273 30.6992 92.9134 25.6829 93.8867 20.5918C 94.9349 15.5006 96.2826 10.5218 97.9297 5.65527C 99.5768 0.713867 101.598 -4.00293 103.994 -8.49512C 106.465 -13.0622 109.46 -17.2175 112.979 -20.9609C 114.027 -22.1589 115.412 -23.6188 117.134 -25.3408C 118.856 -27.1377 120.54 -28.8597 122.188 -30.5068C 123.91 -32.154 125.369 -33.5765 126.567 -34.7744C 127.84 -35.9723 128.514 -36.5713 128.589 -36.5713L 134.429 -36.5713C 135.028 -35.6729 134.878 -34.6995 133.979 -33.6514C 133.156 -32.6032 132.07 -31.5925 130.723 -30.6191C 129.45 -29.7207 128.177 -28.8971 126.904 -28.1484C 125.632 -27.4746 124.883 -27.0254 124.658 -26.8008C 118.669 -20.8112 113.952 -14.6344 110.508 -8.27051C 107.064 -1.90657 104.406 4.75684 102.534 11.7197C 100.662 18.6077 99.3896 25.8327 98.7158 33.3945C 98.1169 40.8815 97.6676 48.7803 97.3682 57.0908L 96.582 57.54C 96.2077 57.6898 95.7959 57.877 95.3467 58.1016C 94.9723 58.3262 94.598 58.5133 94.2236 58.6631C 93.8493 58.8128 93.5872 58.9251 93.4375 59C 93.2129 59.1497 92.8385 59.2246 92.3145 59.2246C 91.8652 59.2246 91.6032 59.1497 91.5283 59L 70.0781 -1.41992Z"/>
</defs>
</svg>
